<svg xmlns="http://www.w3.org/2000/svg" viewBox="0 0 64 64" role="img" aria-label="IMBONIX">
  <!-- Simplified emblem for favicons: ring, three rising bars, the gold sun and the navy leaves. -->
  <path d="M 6.5 38 A 27 27 0 0 1 44 7.5" fill="none" stroke="#0090E4" stroke-width="4.5" stroke-linecap="round"/>
  <path d="M 51 13 A 27 27 0 0 1 56.5 21" fill="none" stroke="#00C0D8" stroke-width="4.5" stroke-linecap="round"/>
  <rect x="15" y="27" width="8" height="18" rx="2" fill="#0060B4"/>
  <rect x="27" y="20" width="8" height="25" rx="2" fill="#0078C8"/>
  <rect x="39" y="12" width="8" height="33" rx="2" fill="#00A8E4"/>
  <circle cx="53" cy="31" r="4.5" fill="#F8B828"/>
  <g stroke="#FFFFFF" stroke-width="2.4" stroke-linejoin="round" paint-order="stroke">
    <path d="M 3 38 C 12 39 22 43 27 50 C 29.5 53.5 31 57 31.5 61 C 18 60 7 52 3 38 Z" fill="#002454"/>
    <path d="M 61 37 C 52 38.5 42 43 37 50 C 34.5 53.5 33 57 32.5 61 C 46 60 57 52 61 37 Z" fill="#002454"/>
  </g>
</svg>
